<svg viewBox="0 0 560 330" xmlns="http://www.w3.org/2000/svg" style="width:100%;height:auto;">
<defs>
<linearGradient id="web" x1="0" y1="0" x2="1" y2="1"><stop offset="0%" stop-color="#667eea"/><stop offset="100%" stop-color="#764ba2"/></linearGradient>
<linearGradient id="sql" x1="0" y1="0" x2="1" y2="1"><stop offset="0%" stop-color="#0F9ED5"/><stop offset="100%" stop-color="#156082"/></linearGradient>
<linearGradient id="kv" x1="0" y1="0" x2="1" y2="1"><stop offset="0%" stop-color="#E97132"/><stop offset="100%" stop-color="#B14E1F"/></linearGradient>
<linearGradient id="ai" x1="0" y1="0" x2="1" y2="1"><stop offset="0%" stop-color="#FFC000"/><stop offset="100%" stop-color="#B5860A"/></linearGradient>
<marker id="ar" viewBox="0 0 10 10" refX="9" refY="5" markerWidth="7" markerHeight="7" orient="auto"><path d="M0,0 L10,5 L0,10 z" fill="#FFD700"/></marker>
</defs>
<g font-family="Segoe UI,system-ui,sans-serif">
<rect x="190" y="20" width="180" height="50" rx="12" fill="rgba(255,255,255,0.08)" stroke="rgba(255,255,255,0.22)" stroke-dasharray="4 3"/>
<text x="280" y="42" text-anchor="middle" fill="#FFD700" font-size="11" font-weight="700">User Browser</text>
<text x="280" y="58" text-anchor="middle" fill="#c0cad7" font-size="9">HTTPS, public endpoint</text>
<rect x="200" y="100" width="160" height="68" rx="12" fill="url(#web)" stroke="rgba(255,255,255,0.3)"/>
<text x="280" y="124" text-anchor="middle" fill="#fff" font-size="14" font-weight="700">Web App</text>
<text x="280" y="142" text-anchor="middle" fill="#e8e2ff" font-size="10">.NET on App Service</text>
<text x="280" y="156" text-anchor="middle" fill="#FFD700" font-size="9" font-weight="700">+ Managed Identity</text>
<rect x="20" y="210" width="150" height="72" rx="12" fill="url(#sql)" stroke="rgba(255,255,255,0.3)"/>
<text x="95" y="235" text-anchor="middle" fill="#fff" font-size="13" font-weight="700">SQL Database</text>
<text x="95" y="254" text-anchor="middle" fill="#d6eef8" font-size="10">AAD-only auth</text>
<text x="95" y="268" text-anchor="middle" fill="#d6eef8" font-size="9">no SQL passwords</text>
<rect x="205" y="210" width="150" height="72" rx="12" fill="url(#kv)" stroke="rgba(255,255,255,0.3)"/>
<text x="280" y="235" text-anchor="middle" fill="#fff" font-size="13" font-weight="700">Key Vault</text>
<text x="280" y="254" text-anchor="middle" fill="#ffe2cf" font-size="10">app secrets</text>
<text x="280" y="268" text-anchor="middle" fill="#ffe2cf" font-size="9">RBAC: Secrets User</text>
<rect x="390" y="210" width="150" height="72" rx="12" fill="url(#ai)" stroke="rgba(255,255,255,0.3)"/>
<text x="465" y="235" text-anchor="middle" fill="#fff" font-size="13" font-weight="700">App Insights</text>
<text x="465" y="254" text-anchor="middle" fill="#fff8d6" font-size="10">telemetry</text>
<text x="465" y="268" text-anchor="middle" fill="#fff8d6" font-size="9">via Managed Identity</text>
<text x="280" y="320" text-anchor="middle" fill="#c0cad7" font-size="10" font-style="italic">Every link uses Managed Identity &#8212; zero connection strings</text>
</g>
<line x1="280" y1="70" x2="280" y2="96" stroke="#FFD700" stroke-width="2.5" marker-end="url(#ar)"/>
<line x1="250" y1="166" x2="125" y2="206" stroke="#FFD700" stroke-width="2" marker-end="url(#ar)"/>
<line x1="280" y1="170" x2="280" y2="206" stroke="#FFD700" stroke-width="2" marker-end="url(#ar)"/>
<line x1="310" y1="166" x2="435" y2="206" stroke="#FFD700" stroke-width="2" marker-end="url(#ar)"/>
</svg>